# xmcd CD database file
#
# Track frame offsets:
#	150
#	9940
#	25568
#	40048
#	52458
#	64910
#	76083
#	86843
#	96114
#	112277
#	123790
#	135410
#	145273
#	159779
#	168734
#	180844
#	190564
#	201044
#	214929
#	224904
#	228862
#	240154
#	249630
#	255765
#	265610
#	270998
#
# Disc length: 3703 seconds
#
# Revision: 2
# Processed by: cddbd v1.4PL0 Copyright (c) Steve Scherf et al.
# Submitted via: CDex 1.40Release
#
DISCID=550e751a
DTITLE=Marvin and Johnny - Flipped Out
DYEAR=1900
DGENRE=
TTITLE0=Wine Woogie (1952)
TTITLE1=Old Man's Blues (1952)
TTITLE2=Dream Girl (1952)
TTITLE3=As Long As You're Satisfied (1953)
TTITLE4=My Baby Won't Let Me In (1953)
TTITLE5=Sun Was Shining (1953)
TTITLE6=Baby Doll (1953)
TTITLE7=I'm Not A Fool (1953)
TTITLE8=Jo Jo (1954)
TTITLE9=Honey (Take 3) (1953)
TTITLE10=Honey (Take 4) (1954)
TTITLE11=How Long She Been Gone (1954)
TTITLE12=If I Should Lose You (1953)
TTITLE13=Boy Loves Girl (1954)
TTITLE14=School Of Love (1954)
TTITLE15=I Want Lovin' (1953)
TTITLE16=Day In-Day Out (1954)
TTITLE17=What's The Matter aka Hey Baby (1955)
TTITLE18=Flip (1953)
TTITLE19=Hunter Hancock Radion Ad
TTITLE20=Mamo Mamo (1955)
TTITLE21=Ding Dong Baby (1955)
TTITLE22=Tell Me Darling (1956)
TTITLE23=Yak Yak Woman (1956)
TTITLE24=Pretty One (1956)
TTITLE25=Bye Bye My Baby (1956)
EXTD=
EXTT0=
EXTT1=
EXTT2=
EXTT3=
EXTT4=
EXTT5=
EXTT6=
EXTT7=
EXTT8=
EXTT9=
EXTT10=
EXTT11=
EXTT12=
EXTT13=
EXTT14=
EXTT15=
EXTT16=
EXTT17=
EXTT18=
EXTT19=
EXTT20=
EXTT21=
EXTT22=
EXTT23=
EXTT24=
EXTT25=
PLAYORDER=
